<?xml version="1.0" standalone="no"?>
<!DOCTYPE svg PUBLIC "-//W3C//DTD SVG 20010904//EN"
 "http://www.w3.org/TR/2001/REC-SVG-20010904/DTD/svg10.dtd">
<svg version="1.0" xmlns="http://www.w3.org/2000/svg"
 width="549.000000pt" height="549.000000pt" viewBox="0 0 549.000000 549.000000"
 preserveAspectRatio="xMidYMid meet">
<metadata>
Created by potrace 1.16, written by Peter Selinger 2001-2019
</metadata>
<g transform="translate(0.000000,549.000000) scale(0.100000,-0.100000)"
fill="#000000" stroke="none">
<path d="M0 2745 l0 -2745 2745 0 2745 0 0 2745 0 2745 -2745 0 -2745 0 0
-2745z m780 1955 l0 -200 -200 0 -200 0 0 200 0 200 200 0 200 0 0 -200z m580
-50 l0 -250 -250 0 -250 0 0 250 0 250 250 0 250 0 0 -250z m940 -470 l0 -200
-200 0 -200 0 0 200 0 200 200 0 200 0 0 -200z m1450 -400 l0 -200 -200 0
-200 0 0 200 0 200 200 0 200 0 0 -200z m-850 -220 l0 -200 -200 0 -200 0 0
200 0 200 200 0 200 0 0 -200z m-1600 -60 l0 -200 -200 0 -200 0 0 200 0 200
200 0 200 0 0 -200z m3490 -200 l0 -250 -250 0 -250 0 0 250 0 250 250 0 250
0 0 -250z m520 50 l0 -200 -200 0 -200 0 0 200 0 200 200 0 200 0 0 -200z
m-2610 -450 l0 -200 -200 0 -200 0 0 200 0 200 200 0 200 0 0 -200z m-1400
-650 l0 -200 -200 0 -200 0 0 200 0 200 200 0 200 0 0 -200z m442 48 l2 -103
3 103 4 102 29 0 30 0 0 -100 c0 -60 4 -100 10 -100 6 0 10 -38 10 -95 l0 -95
-175 0 -175 0 0 103 c1 93 3 104 25 130 29 33 35 34 35 5 0 -22 1 -21 25 7
l24 30 1 -35 0 -35 23 35 22 35 3 -42 c3 -35 7 -43 23 -43 18 0 19 8 19 100
l0 100 30 0 30 0 2 -102z m1238 -388 l0 -200 -200 0 -200 0 0 200 0 200 200 0
200 0 0 -200z m1810 -650 l0 -250 -250 0 -250 0 0 250 0 250 250 0 250 0 0
-250z m490 50 l0 -200 -200 0 -200 0 0 200 0 200 200 0 200 0 0 -200z m-3640
-100 l0 -200 -200 0 -200 0 0 200 0 200 200 0 200 0 0 -200z m2450 0 l0 -200
-200 0 -200 0 0 200 0 200 200 0 200 0 0 -200z m-3230 -400 l0 -200 -200 0
-200 0 0 200 0 200 200 0 200 0 0 -200z m3430 -150 l0 -200 -200 0 -200 0 0
200 0 200 200 0 200 0 0 -200z"/>
<path d="M395 4877 c-3 -7 -4 -91 -3 -187 l3 -175 185 0 185 0 0 185 0 185
-183 3 c-143 2 -184 0 -187 -11z"/>
<path d="M880 4650 l0 -230 99 0 c95 0 100 1 104 23 l4 22 2 -22 c1 -23 3 -23
126 -23 l125 0 0 230 0 230 -230 0 -230 0 0 -230z"/>
<path d="M1915 4357 c-3 -7 -4 -91 -3 -187 l3 -175 185 0 185 0 0 185 0 185
-183 3 c-143 2 -184 0 -187 -11z"/>
<path d="M3365 3957 c-3 -7 -4 -91 -3 -187 l3 -175 185 0 185 0 0 185 0 185
-183 3 c-143 2 -184 0 -187 -11z"/>
<path d="M2515 3737 c-3 -7 -4 -91 -3 -187 l3 -175 185 0 185 0 0 185 0 185
-183 3 c-143 2 -184 0 -187 -11z"/>
<path d="M915 3677 c-3 -7 -4 -91 -3 -187 l3 -175 185 0 185 0 0 185 0 185
-183 3 c-143 2 -184 0 -187 -11z m128 -79 c-48 -47 -61 -64 -48 -66 9 -2 29 7
43 20 26 22 26 22 8 1 l-19 -23 98 0 99 0 -30 33 c-28 31 -28 31 9 -3 21 -19
33 -36 27 -38 -6 -2 -10 -41 -10 -98 l0 -94 -115 0 -115 0 0 95 c0 83 -2 95
-17 95 -12 0 6 24 52 70 38 39 73 70 76 70 4 0 -22 -28 -58 -62z"/>
<path d="M1000 3430 l0 -90 105 0 105 0 0 90 0 90 -105 0 -105 0 0 -90z"/>
<path d="M4310 3300 l0 -230 230 0 230 0 0 230 0 230 -230 0 -230 0 0 -230z
m280 5 c0 -123 4 -195 10 -195 6 0 10 60 10 160 l0 160 45 0 45 0 0 -159 c0
-144 2 -160 18 -164 9 -3 -73 -5 -183 -5 -110 0 -194 2 -187 5 9 3 12 40 12
134 l0 129 55 0 54 0 4 -132 c2 -108 3 -96 5 65 l2 197 55 0 55 0 0 -195z"/>
<path d="M4490 3300 l0 -190 45 0 45 0 0 190 0 190 -45 0 -45 0 0 -190z"/>
<path d="M4620 3265 l0 -155 35 0 35 0 0 155 0 155 -35 0 -35 0 0 -155z"/>
<path d="M4370 3235 l0 -125 45 0 45 0 0 125 0 125 -45 0 -45 0 0 -125z"/>
<path d="M4925 3527 c-3 -7 -4 -91 -3 -187 l3 -175 56 -3 57 -3 6 48 c8 71 9
73 18 67 4 -3 4 -14 -2 -24 -5 -10 -10 -34 -10 -53 l0 -35 60 0 59 0 4 92 3
91 2 -93 2 -93 58 3 57 3 0 185 0 185 -183 3 c-143 2 -184 0 -187 -11z"/>
<path d="M2315 3077 c-3 -7 -4 -91 -3 -187 l3 -175 185 0 185 0 0 185 0 185
-183 3 c-143 2 -184 0 -187 -11z m288 -136 c15 -1 17 -12 17 -75 0 -74 0 -75
28 -79 15 -2 -49 -4 -143 -4 -93 0 -158 2 -142 4 27 4 27 5 27 78 0 73 0 74
28 77 23 3 128 2 185 -1z"/>
<path d="M915 2427 c-3 -7 -4 -91 -3 -187 l3 -175 185 0 185 0 0 185 0 185
-183 3 c-143 2 -184 0 -187 -11z"/>
<path d="M1640 2105 l0 -85 90 0 90 0 0 85 0 85 -90 0 -90 0 0 -85z"/>
<path d="M2590 1905 l0 -185 190 0 190 0 0 185 0 185 -190 0 -190 0 0 -185z"/>
<path d="M4310 1260 l0 -230 230 0 230 0 0 230 0 230 -230 0 -230 0 0 -230z"/>
<path d="M4890 1305 l0 -185 190 0 190 0 0 185 0 185 -190 0 -190 0 0 -185z"/>
<path d="M1250 1205 l0 -185 190 0 190 0 0 185 0 185 -190 0 -190 0 0 -185z"/>
<path d="M3700 1205 l0 -185 190 0 190 0 0 185 0 185 -190 0 -190 0 0 -185z
m310 -56 c0 -33 3 -38 28 -42 15 -2 -47 -4 -138 -4 -91 -1 -157 1 -147 4 11 3
17 14 17 32 0 16 10 37 25 51 l25 23 25 -23 c15 -14 25 -35 25 -52 0 -18 5
-28 15 -28 11 0 15 11 15 37 0 26 8 45 27 65 l27 28 28 -27 c21 -20 28 -36 28
-64z"/>
<path d="M470 805 l0 -185 190 0 190 0 0 90 0 90 -75 0 c-73 0 -75 -1 -75 -25
0 -24 3 -25 61 -25 l60 0 -3 -42 -3 -43 -92 -3 -93 -3 0 71 0 70 -75 0 -75 0
0 55 0 55 185 0 185 0 0 40 0 40 -190 0 -190 0 0 -185z"/>
<path d="M490 855 l0 -45 175 0 175 0 0 45 0 45 -175 0 -175 0 0 -45z"/>
<path d="M3900 815 c0 -22 4 -25 35 -25 l35 0 0 -140 0 -140 130 0 130 0 0 90
0 90 -55 0 -55 0 0 -40 0 -40 -55 0 -55 0 0 85 0 85 128 -2 127 -2 -122 -3
-123 -4 0 -74 0 -75 45 0 45 0 0 40 0 40 65 0 66 0 -3 -97 -3 -98 -137 -3
-138 -3 0 141 0 140 -30 0 -30 0 0 -155 0 -155 190 0 190 0 0 185 0 185 -190
0 -190 0 0 -25z"/>
</g>
</svg>
